<svg xmlns="http://www.w3.org/2000/svg" width="27" height="24" viewBox="0 0 27 24">
  <g id="settings-icon" transform="translate(-963 -153)">
    <rect id="Rectangle_9201" data-name="Rectangle 9201" width="27" height="24" transform="translate(963 153)" fill="none"/>
    <path id="settings-icon-2" data-name="settings-icon" d="M-262.565-9187.083l-.157-.439h-16.552a.727.727,0,0,1-.727-.727.728.728,0,0,1,.727-.728h16.552l.157-.437a3.5,3.5,0,0,1,3.3-2.332,3.506,3.506,0,0,1,3.3,2.332l.152.437h2.087a.727.727,0,0,1,.727.728.726.726,0,0,1-.727.727h-2.087l-.152.439a3.508,3.508,0,0,1-3.3,2.332A3.5,3.5,0,0,1-262.565-9187.083Zm1.255-1.166a2.045,2.045,0,0,0,2.043,2.043,2.045,2.045,0,0,0,2.043-2.043,2.045,2.045,0,0,0-2.043-2.043A2.045,2.045,0,0,0-261.31-9188.249Zm-15.72-10.09-.154-.437h-2.09a.728.728,0,0,1-.727-.728.728.728,0,0,1,.727-.728h2.09l.154-.438a3.5,3.5,0,0,1,3.3-2.33,3.5,3.5,0,0,1,3.3,2.33l.152.438h16.552a.727.727,0,0,1,.727.728.727.727,0,0,1-.727.728H-270.28l-.152.437a3.508,3.508,0,0,1-3.3,2.335A3.5,3.5,0,0,1-277.03-9198.339Zm1.255-1.164a2.045,2.045,0,0,0,2.043,2.043,2.045,2.045,0,0,0,2.043-2.043,2.045,2.045,0,0,0-2.043-2.043A2.045,2.045,0,0,0-275.775-9199.5Z" transform="translate(1243.001 9358.875)" fill="#fff"/>
  </g>
</svg>